<svg xmlns="http://www.w3.org/2000/svg" xmlns:xlink="http://www.w3.org/1999/xlink" viewBox="0 0 1200 1200"><defs><style>.cls-1{isolation:isolate;}.cls-2{fill:none;}.cls-3{fill:#fff;}.cls-4{fill:#22c55e;}.cls-5{fill:#fff;}.cls-6{fill:#fff;}.cls-7{fill:#fff;}.cls-8{fill:#22c55e;}.cls-9{fill:#22c55e;}.cls-10{fill:#fff;}.cls-11{fill:#fff;}.cls-12{fill:#000;}.cls-13{fill:#fff;}.cls-14{fill:#000;}.cls-15{opacity:0.7;}.cls-15,.cls-25{mix-blend-mode:soft-light;}.cls-16{fill:url(#linear-gradient);}.cls-17{fill:url(#linear-gradient);}.cls-18{fill:url(#linear-gradient);}.cls-19{fill:url(#linear-gradient);}.cls-20{fill:url(#linear-gradient);}.cls-21{fill:url(#linear-gradient);}.cls-22{fill:url(#linear-gradient);}.cls-23{fill:url(#linear-gradient);}.cls-24{fill:none;}.cls-25{opacity:0.7;}.cls-26{fill:url(#linear-gradient-9);}.cls-27{fill:url(#linear-gradient-10);}.cls-28{fill:url(#linear-gradient-11);}.cls-29{fill:url(#linear-gradient-12);}.cls-30{fill:url(#linear-gradient-13);}.cls-31{fill:url(#linear-gradient-14);}.cls-32{fill:url(#linear-gradient-16);}.cls-33{fill:url(#linear-gradient-18);}</style><linearGradient id="linear-gradient" x1="306.11" y1="484.11" x2="329.54" y2="484.11" gradientUnits="userSpaceOnUse"><stop offset="0" stop-color="#fff"/><stop offset="1" stop-color="#fff"/></linearGradient><linearGradient id="linear-gradient-2" x1="273.74" y1="534.99" x2="308.83" y2="534.99" xlink:href="#linear-gradient"/><linearGradient id="linear-gradient-3" x1="735.95" y1="342.67" x2="771.03" y2="342.67" xlink:href="#linear-gradient"/><linearGradient id="linear-gradient-4" x1="772.13" y1="303.33" x2="797.03" y2="303.33" xlink:href="#linear-gradient"/><linearGradient id="linear-gradient-5" x1="736.56" y1="654.69" x2="758.46" y2="654.69" xlink:href="#linear-gradient"/><linearGradient id="linear-gradient-6" x1="783.16" y1="338.43" x2="798.98" y2="338.43" xlink:href="#linear-gradient"/><linearGradient id="linear-gradient-7" x1="731.8" y1="627.69" x2="743.89" y2="627.69" xlink:href="#linear-gradient"/><linearGradient id="linear-gradient-8" x1="326.2" y1="518.62" x2="342.03" y2="518.62" xlink:href="#linear-gradient"/><linearGradient id="linear-gradient-9" x1="375.14" y1="599.9" x2="718.26" y2="599.9" xlink:href="#linear-gradient"/><linearGradient id="linear-gradient-10" x1="306.11" y1="484.11" x2="329.54" y2="484.11" xlink:href="#linear-gradient"/><linearGradient id="linear-gradient-11" x1="273.74" y1="534.99" x2="308.83" y2="534.99" xlink:href="#linear-gradient"/><linearGradient id="linear-gradient-12" x1="735.95" y1="342.67" x2="771.03" y2="342.67" xlink:href="#linear-gradient"/><linearGradient id="linear-gradient-13" x1="772.13" y1="303.33" x2="797.03" y2="303.33" xlink:href="#linear-gradient"/><linearGradient id="linear-gradient-14" x1="905.06" y1="514.5" x2="926.96" y2="514.5" xlink:href="#linear-gradient"/><linearGradient id="linear-gradient-16" x1="918.94" y1="490.35" x2="931.03" y2="490.35" xlink:href="#linear-gradient"/><linearGradient id="linear-gradient-18" x1="727.57" y1="699.42" x2="917.01" y2="699.42" xlink:href="#linear-gradient"/></defs><g class="cls-1"><g id="Layer_1" data-name="Layer 1"><path class="cls-2" d="M128.93,789.69c-22.79-57.61-9-132.7,43.4-165.71,22-13.84,49.93-20.53,64.83-41.82,33.06-52.56-30.69-147.57-22.66-216C211,250,252,198.31,393.91,188.13s233.52,74.94,265.74,93.75C730.26,323.1,822.13,279.2,901,300.64,971.17,319.7,1020.49,396.19,1008.9,468c-9.45,58.49-53.5,112.47-41.85,170.56,30.9,106,199.69,160.38,60,285.72-73,51.6-168,33.79-252.07,38.61-60.37,3.67-119.25,19.28-178.35,32.12-120.09,32-253.31,27.64-339.43-71.71C209.44,879.05,154.62,854.63,128.93,789.69Z"/><rect class="cls-3" x="375.18" y="263.33" width="343.04" height="673.16" rx="33"/><rect class="cls-4" x="386.18" y="271.3" width="322" height="654" rx="33"/><rect class="cls-5" x="470.57" y="400.26" width="7" height="27"/><rect class="cls-5" x="545.31" y="629.1" width="4.17" height="132.69" rx="1.58" transform="translate(1242.94 148.18) rotate(90.01)"/><rect class="cls-5" x="545.31" y="674.42" width="4.17" height="58.74" rx="1.05" transform="matrix(0, 1, -1, 0, 1251.23, 156.45)"/><rect class="cls-5" x="480.57" y="400.26" width="2" height="27"/><polygon class="cls-5" points="485.31 427.26 605.36 427.27 605.32 400.27 485.27 400.26 485.31 427.26"/><rect class="cls-5" x="613.57" y="400.26" width="7" height="27" transform="translate(1234.14 827.54) rotate(-180)"/><rect class="cls-5" x="608.57" y="400.26" width="2" height="27" transform="translate(1219.14 827.54) rotate(-180)"/><rect class="cls-3" x="479.14" y="263.3" width="135" height="33" rx="6"/><circle class="cls-6" cx="563.46" cy="281.29" r="4.5" transform="translate(-35.2 476.8) rotate(-44.62)"/><circle class="cls-6" cx="524.14" cy="281.45" r="4.5" transform="translate(-46.64 449.23) rotate(-44.62)"/><rect class="cls-6" x="454.22" y="896.31" width="99" height="7"/><rect class="cls-6" x="568.22" y="896.3" width="68" height="7"/><rect class="cls-5" x="432.19" y="446.44" width="230.42" height="230.42" rx="26.37"/><path d="M617.12,624.19v7.61h7.65v6.88H610.33l-.4-7.06H595.2v7.06h-22V624.34h14.75V595.08l-15.05-.85,0,0q0-3,0-6.06h0c6.45-.18,12.89-.38,19.34-.5a18.77,18.77,0,0,1,3.28.51l0,0c-.12,2.14-.23,4.28-.37,6.79h14.7c0,4,.18,7.6,0,11.2-.18,2.76.79,3.76,3.48,3.43a33.05,33.05,0,0,1,3.88,0v7.12l.13-.09H602.8v7.68h14.45Zm-14.57-21.76h-7.14v6.85h7.14Z"/><path d="M624.77,536.2H573.43V485.27h51v3.87c0,13.75,0,27.51,0,41.26,0,1.7.23,3.41.35,5.11Zm-7.63-7.52v-36.3H580.86v36.3Z"/><path d="M521.6,484.61V536.2H470v-.69c.12-1.7.34-3.4.35-5.1,0-13.72,0-27.44,0-41.17V485H475q20.92,0,41.86,0c1.35,0,2.71-.23,4.06-.35Zm-7.3,44.07v-36.3H477.77v36.3Z"/><path d="M470,587.78H521.6v50.9H470.7c-.1-1.24-.3-2.48-.3-3.72,0-12.2,0-24.41,0-36.62,0-3.29-.23-6.58-.35-9.87Zm7.76,7.16v36.49h36.45V594.94Z"/><path d="M565.62,484.61v22l-7.06.37c-.13,2.32-.25,4.57-.38,7h-6.74V499.87l7.3-.39V484.61Z"/><path d="M624.77,565.08h-7.18c-.1-2.12-.19-4.23-.31-6.72H610.4V543.93h6.69v6.85l7.68.55Z"/><path d="M624.77,594.66H610.44V580.14h6.62l-.11-.09c.17,2.36.34,4.72.55,7.73h7.27Z"/><path d="M529.17,638.68v-6.74h22v6.74Z"/><path d="M470,543.76h7.35v6.88H470Z"/><path d="M477.35,558v7.08H470v-.68l.61-6,6.83-.34Z"/><path d="M624.77,609.1h-7.08v-6.59h6.46c.2,1.92.41,3.91.62,5.91Z"/><path d="M558.74,638.68V632h6.88v6.72Z"/><path d="M551.23,580.14h-7.12v-7.2h-7.52v14.27h-7.27V565.46H514.81v-7H529v-7.17h21.8v6.9H536.68v7.37h14.43v14.7Z"/><path d="M551.11,580.26h7.19v15.09l14.61-1.08,0,0c.06,2.68.13,5.37.19,8l.11-.1H558.55c-.13,2.4-.25,4.53-.39,7h-6.84v7.27H536.89v-6.58c2.19-.19,5.17.4,6.42-.8s.78-4.21,1.1-6.73h6.82V580.14Z"/><path d="M558.61,514.43h6.88V543.3l-6.91.37-.43,6.91h-6.83l-.31-6.91-6.72-.37V529h6.65V536h7.67Z"/><path d="M573.37,580.37v-7.5l-7.2-.33c-.13-2.39-.24-4.61-.37-7.12h-6.89v-7h6.88v-7h7.33v14.13h7.39v7.13l7.14.33v7.3H573.26Z"/><path d="M499.44,558.37h7.45V572.6H492.4V580h-7.24v-7.2h-7.41v-7.13H499.9l-.35-7.38Z"/><path d="M499.55,558.25l-22.2-.24.11.09v-6.82l7.58-.4v-7h7l.38,7,7,.37v7.14Z"/><path d="M603,558h-22v-6.72l7.26-.47v-6.89h6.93V551h7.24c.18,2.62.34,4.87.5,7.11Z"/><path d="M543.65,514.5v13.92h-6.8v-6.59h-7.5V514.5Z"/><path d="M573.08,602.28h7.36v14.25h-7.25V602.18Z"/><path d="M536.25,624h-6.92v-7h6.92Z"/><path d="M536.32,529.1V536h-6.94V529.1Z"/><path d="M529.33,499.3v-6.94h6.94v6.94Z"/><path d="M602.81,580.27c-.12,2.22-.24,4.43-.36,6.68l-7,1.23,0,0c-.14-2.48-.28-5-.43-7.83h7.85Z"/><path d="M521.53,573v7h-6.81v-7Z"/><path d="M602.92,580.39V573h6.65v7.23H602.8Z"/><path d="M565.2,580.52l-6.32-.5V573.1h6.92l-.61,7.42Z"/><path d="M536.16,609.09h-6.73V602.4h6.73Z"/><path d="M565.42,624.07h-6.56v-7h6.56Z"/><path d="M500.09,543.81H507v6.7h-6.86Z"/><path d="M617.12,616.7h7v7.49h-7l.13.1v-7.68Z"/><path d="M617.06,580.14c.19-2.25.39-4.5.61-7h6.5v6.95H617Z"/><path d="M565.19,580.52l8.18-.15-.11-.1c-.13,2.65-.25,5.29-.38,7.94h0L566.45,587c-.39-2-.82-4.26-1.25-6.47Z"/><path d="M543.63,587.89v6.6h-6.8v-6.6Z"/><path d="M617.14,565.82v6.61h-6.8v-6.61Z"/><path d="M602.84,558.11h6.72v6.94h-6.62v-7Z"/><path d="M521.52,544v6.56H514.8V544Z"/><path d="M536.86,499.79h6.63v6.68h-6.63Z"/><path d="M609.66,499.91v21.55H588.48V499.91Z"/><path d="M506.93,521.52H485.28V499.94h21.65Z"/><path d="M507,602.42V624H485.33V602.42Z"/><path class="cls-7" d="M306.11,472.4v23.43h23.43V472.4Zm17.95,18H311.59V477.87h12.47Z"/><path class="cls-7" d="M273.74,517.45v35.08h35.09V517.45Zm28.12,28.11H280.71V524.41h21.15Z"/><path class="cls-7" d="M736,325.13v35.08H771V325.13Zm28,28.05H743v-21h21Z"/><path class="cls-7" d="M772.13,290.88v24.91H797V290.88Zm18.94,18.94h-13v-13h13Z"/><path class="cls-7" d="M905.06,503.55v21.9H927v-21.9Zm16.65,16.66H910.3V508.8h11.41Z"/><rect class="cls-7" x="783.16" y="330.52" width="15.83" height="15.83"/><rect class="cls-7" x="918.94" y="484.31" width="12.09" height="12.09"/><rect class="cls-7" x="326.2" y="510.7" width="15.83" height="15.83"/><rect class="cls-8" x="814.3" y="462.14" width="55.85" height="55.85" rx="19.62"/><path class="cls-7" d="M857,554.94c-9.83.1-19.66.45-29.48.8,1.21-15.34,2.17-30.7,3.34-46q11.58.14,23.14.23C854.81,525,855.84,540,857,554.94Z"/><path class="cls-7" d="M822.4,524.77h5.09c11.48,0,31.85-9.31,31.85-20.79V493.19a20.79,20.79,0,0,0-20.79-20.79h-5.09a20.79,20.79,0,0,0-20.79,20.79V504C812.67,515.46,810.92,524.77,822.4,524.77Z"/><rect class="cls-8" x="804.73" y="468.7" width="40.12" height="21.75" rx="10.87" transform="translate(-90.31 209.63) rotate(-13.74)"/><rect class="cls-8" x="838.87" y="469.52" width="27.36" height="21.75" rx="10.87" transform="translate(178.15 -228.69) rotate(17.04)"/><path class="cls-7" d="M852.43,500.86a9,9,0,0,0,10,9.3,10.87,10.87,0,0,0,10.21-10.7,9,9,0,0,0-10-9.31A10.87,10.87,0,0,0,852.43,500.86Z"/><path class="cls-7" d="M741.78,656.93l4.9,5.76,4.9,5.76,61-51.67,12-26.66a15,15,0,0,0-8.82-20.38h0a15,15,0,0,0-19.55,10.87l-6.46,28.31Z"/><path class="cls-7" d="M729.47,677.33h0a8,8,0,0,0,10.92,1.18l9.28-7a8,8,0,0,0,1.25-11.53l-.83-1a8,8,0,0,0-11.58-.62l-8.45,8A8,8,0,0,0,729.47,677.33Z"/><path class="cls-9" d="M836.73,559.08l-9.17,36.82-33.18-8.27c-1.78-.44-2.8-2.51-2.28-4.62l8.22-33a12.24,12.24,0,0,1,14.83-8.91l12.66,3.15A12.25,12.25,0,0,1,836.73,559.08Z"/><rect class="cls-7" x="730.22" y="657.96" width="12.67" height="5.63" rx="2.65" transform="translate(-202.73 349.51) rotate(-23.56)"/><path class="cls-9" d="M812.27,540.73h66.35a9.6,9.6,0,0,1,9.6,9.6v95.1a0,0,0,0,1,0,0H802.67a0,0,0,0,1,0,0v-95.1A9.6,9.6,0,0,1,812.27,540.73Z"/><path class="cls-10" d="M890,899.7,880.76,901a2.84,2.84,0,0,0-2.44,3.32l3.32,22.29,15.14,0L894,902.88A3.68,3.68,0,0,0,890,899.7Z"/><path class="cls-10" d="M846.43,935.67l51.35.09-1-9.17-15.14,0S845.78,929.61,846.43,935.67Z"/><path class="cls-11" d="M896.25,921.73l1.52,14-52.08-.09c-1.34-12.38,35.17-14,35.17-14Z"/><path class="cls-12" d="M867.5,908.54l17-.83,17-.83L886.37,777.37l4.55-129.84c0-1.16-1-3.75-2.16-3.79H837.61l9.56,134.66Z"/><path class="cls-7" d="M803.65,892.7l2.49,34.82h15.12L820,894.84a1.94,1.94,0,0,0-1.61-1.83l-12.6-2.23A1.81,1.81,0,0,0,803.65,892.7Z"/><path class="cls-7" d="M770.26,936.7h51.28l-.28-9.18H806.14S770.07,930.65,770.26,936.7Z"/><path class="cls-13" d="M821.1,922.66l.43,14h-52c-.38-12.38,36.21-14,36.21-14Z"/><path class="cls-14" d="M793.7,907.37l17.11.17,17.12.17L827.84,778,855,643.74H805.22c-1.87,0-3.44.78-3.71,2.64L787.78,769.79Z"/><path class="cls-7" d="M900.74,681.43l7.55-.23,7.56-.23-2.26-79.89-11-22.55a14.9,14.9,0,0,0-21.35-6h0a14.88,14.88,0,0,0-3.7,21.84L893.18,614Z"/><path class="cls-7" d="M909,703.78h0a8,8,0,0,0,7.75-7.78l.28-11.65a8,8,0,0,0-8.22-8.18l-1.28,0a8,8,0,0,0-7.71,8.65l1,11.62A8,8,0,0,0,909,703.78Z"/><path class="cls-9" d="M858.32,565.46l16.85,32.63,30.38-15.7c1.63-.84,2.14-3.09,1.15-5l-15.05-29.12a13.45,13.45,0,0,0-18.13-5.78l-9.42,4.87A13.44,13.44,0,0,0,858.32,565.46Z"/><g class="cls-15"><rect class="cls-16" x="306.11" y="472.4" width="23.43" height="23.43"/><rect class="cls-17" x="273.74" y="517.45" width="35.08" height="35.08"/><rect class="cls-18" x="735.95" y="325.13" width="35.08" height="35.08"/><rect class="cls-19" x="772.13" y="290.88" width="24.9" height="24.9"/><rect class="cls-20" x="736.56" y="643.74" width="21.9" height="21.9"/><rect class="cls-21" x="783.16" y="330.52" width="15.83" height="15.83"/><rect class="cls-22" x="731.8" y="621.65" width="12.09" height="12.09"/><rect class="cls-23" x="326.2" y="510.7" width="15.83" height="15.83"/></g><rect class="cls-24" width="1200" height="1200"/><g class="cls-25"><path class="cls-26" d="M685.18,263.31H608.64l-.5,0h-123l-.5,0h-76.5a33,33,0,0,0-33,33l.08,607.15a33,33,0,0,0,33,33l277,0a33,33,0,0,0,33-33l-.08-607.16A33,33,0,0,0,685.18,263.31Z"/><path class="cls-27" d="M329.54,472.4H306.11v23.43h23.43Zm-5.48,18H311.59V477.87h12.47Z"/><path class="cls-28" d="M273.74,552.53h35.09V517.45H273.74Zm7-28.12h21.15v21.15H280.71Z"/><path class="cls-29" d="M771,325.13H736v35.08H771Zm-7,28.05H743v-21h21Z"/><path class="cls-30" d="M797,290.88h-24.9v24.91H797Zm-6,18.94h-13v-13h13Z"/><path class="cls-31" d="M905.06,525.45H927v-21.9h-21.9Zm5.24-16.65h11.41v11.41H910.3Z"/><rect class="cls-21" x="783.16" y="330.52" width="15.83" height="15.83"/><rect class="cls-32" x="918.94" y="484.31" width="12.09" height="12.09"/><rect class="cls-23" x="326.2" y="510.7" width="15.83" height="15.83"/><path class="cls-33" d="M913.59,601.08l-8.9-18.24.86-.45c1.63-.84,2.14-3.09,1.15-5l-15.05-29.12A13.43,13.43,0,0,0,881,541a10,10,0,0,0-2.34-.3H855.94q-.83-11.55-1.52-23.12a19.65,19.65,0,0,0,12.79-8.93,10.63,10.63,0,0,0,5.41-9.22,9.22,9.22,0,0,0-2.46-6.56V481.77a19.63,19.63,0,0,0-19.63-19.63h-16.6A19.55,19.55,0,0,0,818.28,470l-5,1.22a10.86,10.86,0,0,0-.56,21c0,.35-.05.69-.05,1V504c0,11.48-1.75,20.79,9.73,20.79h5.09c.72,0,1.47,0,2.25-.11q-.57,8-1.13,16.07H812.27l-.33,0A12.23,12.23,0,0,0,800.32,550l-8.22,33c-.52,2.11.5,4.18,2.28,4.62l.18,0-4.85,21.25-47.31,47.4a7.34,7.34,0,0,0-1.43.43,2.64,2.64,0,0,0-2.17,0l-6.75,2.94a2.66,2.66,0,0,0-1.37,3.49l.13.3a2.68,2.68,0,0,0,1.05,1.2l-1.8,1.71a8,8,0,0,0,10.33,12.15l9.28-7a8,8,0,0,0,2.67-3.65l50.33-42.65v19.29a2.72,2.72,0,0,0-1.16,1.93L787.78,769.79l5.92,137.58,11,.11,1.08,15.18h-.06s-36.59,1.66-36.21,14h52l-.28-9.18,0-1.22-.11-3.64h0l-.58-15,7.44.07L827.84,778l14.28-70.69,5,71.14L867.5,908.54l11.38-.55,2,13.71h-.06s-36.51,1.59-35.17,14h.74l33.89.06,17.45,0h0l-1-9.17-.14-1.22-.39-3.64h0l-1.69-14.51,7-.34L886.37,777.37l4.55-129.84c0-1.16-1-3.75-2.16-3.79h-.54v-36l5,6.25,7.46,66.55a7.93,7.93,0,0,0-.85,4.3l1,11.62a8,8,0,0,0,15.94-.48l.28-11.65a7.92,7.92,0,0,0-1.18-4.37Z"/></g></g></g></svg>